<mxfile host="app.diagrams.net" agent="Mozilla/5.0 (Windows NT 10.0; Win64; x64) AppleWebKit/537.36 (KHTML, like Gecko) Chrome/126.0.0.0 Safari/537.36 Edg/126.0.0.0" version="26.1.0">
  <diagram name="第 1 页" id="n63b4nC1y1BCJf75-sI9">
    <mxGraphModel dx="573" dy="330" grid="1" gridSize="10" guides="1" tooltips="1" connect="1" arrows="1" fold="1" page="1" pageScale="1" pageWidth="827" pageHeight="1169" math="0" shadow="0">
      <root>
        <mxCell id="0" />
        <mxCell id="1" parent="0" />
        <mxCell id="mvJgyyiXs0eFSsutSy1s-8" style="edgeStyle=orthogonalEdgeStyle;rounded=0;orthogonalLoop=1;jettySize=auto;html=1;exitX=0;exitY=0.5;exitDx=0;exitDy=0;" parent="1" source="mvJgyyiXs0eFSsutSy1s-1" edge="1">
          <mxGeometry relative="1" as="geometry">
            <Array as="points">
              <mxPoint x="220" y="440" />
              <mxPoint x="220" y="210" />
            </Array>
            <mxPoint x="259" y="210" as="targetPoint" />
          </mxGeometry>
        </mxCell>
        <mxCell id="mvJgyyiXs0eFSsutSy1s-1" value="&lt;font style=&quot;font-size: 24px;&quot;&gt;环境&lt;/font&gt;" style="ellipse;whiteSpace=wrap;html=1;fillColor=#dae8fc;strokeColor=#6c8ebf;" parent="1" vertex="1">
          <mxGeometry x="350" y="410" width="100" height="60" as="geometry" />
        </mxCell>
        <mxCell id="mvJgyyiXs0eFSsutSy1s-4" style="edgeStyle=orthogonalEdgeStyle;rounded=0;orthogonalLoop=1;jettySize=auto;html=1;exitX=1;exitY=0.5;exitDx=0;exitDy=0;entryX=1;entryY=0.5;entryDx=0;entryDy=0;" parent="1" source="mvJgyyiXs0eFSsutSy1s-2" target="mvJgyyiXs0eFSsutSy1s-1" edge="1">
          <mxGeometry relative="1" as="geometry">
            <Array as="points">
              <mxPoint x="550" y="210" />
              <mxPoint x="580" y="210" />
              <mxPoint x="580" y="440" />
            </Array>
          </mxGeometry>
        </mxCell>
        <mxCell id="mvJgyyiXs0eFSsutSy1s-2" value="" style="rounded=1;whiteSpace=wrap;html=1;fillColor=#ffe6cc;strokeColor=#d79b00;" parent="1" vertex="1">
          <mxGeometry x="260" y="130" width="300" height="240" as="geometry" />
        </mxCell>
        <mxCell id="mvJgyyiXs0eFSsutSy1s-7" value="动作 &lt;i&gt;a&lt;/i&gt;" style="text;html=1;align=center;verticalAlign=middle;whiteSpace=wrap;rounded=0;" parent="1" vertex="1">
          <mxGeometry x="580" y="240" width="60" height="30" as="geometry" />
        </mxCell>
        <mxCell id="mvJgyyiXs0eFSsutSy1s-9" value="状态 &lt;i&gt;s&lt;/i&gt;&lt;div&gt;奖励&lt;i&gt; r&lt;/i&gt;&lt;/div&gt;" style="text;html=1;align=center;verticalAlign=middle;whiteSpace=wrap;rounded=0;" parent="1" vertex="1">
          <mxGeometry x="160" y="240" width="60" height="30" as="geometry" />
        </mxCell>
        <mxCell id="2D5P-O0thgNvpgd-1Gi0-2" value="&lt;span style=&quot;color: rgb(0, 0, 0); font-family: Helvetica; font-size: 24px; font-style: normal; font-variant-ligatures: normal; font-variant-caps: normal; font-weight: 400; letter-spacing: normal; orphans: 2; text-align: center; text-indent: 0px; text-transform: none; widows: 2; word-spacing: 0px; -webkit-text-stroke-width: 0px; white-space: normal; background-color: rgb(251, 251, 251); text-decoration-thickness: initial; text-decoration-style: initial; text-decoration-color: initial; display: inline !important; float: none;&quot;&gt;智能体&lt;/span&gt;" style="text;whiteSpace=wrap;html=1;" parent="1" vertex="1">
          <mxGeometry x="359" y="80" width="110" height="50" as="geometry" />
        </mxCell>
        <mxCell id="Wi5E8he1UOnMoaCyJchL-102" style="edgeStyle=orthogonalEdgeStyle;shape=connector;rounded=0;orthogonalLoop=1;jettySize=auto;html=1;exitX=1;exitY=0.5;exitDx=0;exitDy=0;entryX=0;entryY=0.25;entryDx=0;entryDy=0;strokeColor=default;strokeWidth=1;align=center;verticalAlign=middle;fontFamily=Helvetica;fontSize=11;fontColor=default;labelBackgroundColor=default;endArrow=classic;" edge="1" parent="1" source="2D5P-O0thgNvpgd-1Gi0-3" target="2D5P-O0thgNvpgd-1Gi0-7">
          <mxGeometry relative="1" as="geometry" />
        </mxCell>
        <mxCell id="2D5P-O0thgNvpgd-1Gi0-3" value="" style="rounded=0;whiteSpace=wrap;html=1;fillColor=#d5e8d4;strokeColor=#82b366;" parent="1" vertex="1">
          <mxGeometry x="290" y="167" width="90" height="80" as="geometry" />
        </mxCell>
        <mxCell id="Wi5E8he1UOnMoaCyJchL-101" style="edgeStyle=orthogonalEdgeStyle;shape=connector;rounded=0;orthogonalLoop=1;jettySize=auto;html=1;exitX=1;exitY=0.5;exitDx=0;exitDy=0;entryX=0.5;entryY=1;entryDx=0;entryDy=0;strokeColor=default;strokeWidth=1;align=center;verticalAlign=middle;fontFamily=Helvetica;fontSize=11;fontColor=default;labelBackgroundColor=default;endArrow=classic;" edge="1" parent="1" source="2D5P-O0thgNvpgd-1Gi0-5" target="2D5P-O0thgNvpgd-1Gi0-7">
          <mxGeometry relative="1" as="geometry" />
        </mxCell>
        <mxCell id="2D5P-O0thgNvpgd-1Gi0-5" value="" style="rounded=0;whiteSpace=wrap;html=1;fillColor=#f8cecc;strokeColor=#b85450;" parent="1" vertex="1">
          <mxGeometry x="380" y="260" width="80" height="80" as="geometry" />
        </mxCell>
        <mxCell id="2D5P-O0thgNvpgd-1Gi0-7" value="策略" style="rounded=0;whiteSpace=wrap;html=1;fillColor=#e1d5e7;strokeColor=#9673a6;" parent="1" vertex="1">
          <mxGeometry x="480" y="200" width="60" height="30" as="geometry" />
        </mxCell>
        <mxCell id="Wi5E8he1UOnMoaCyJchL-1" value="Q" style="text;html=1;align=center;verticalAlign=middle;whiteSpace=wrap;rounded=0;" vertex="1" parent="1">
          <mxGeometry x="310" y="142" width="60" height="30" as="geometry" />
        </mxCell>
        <mxCell id="Wi5E8he1UOnMoaCyJchL-15" style="rounded=0;orthogonalLoop=1;jettySize=auto;html=1;exitX=1;exitY=0.5;exitDx=0;exitDy=0;entryX=0;entryY=0.5;entryDx=0;entryDy=0;strokeWidth=0.5;endArrow=none;endFill=1;startFill=0;" edge="1" parent="1" source="Wi5E8he1UOnMoaCyJchL-2" target="Wi5E8he1UOnMoaCyJchL-5">
          <mxGeometry relative="1" as="geometry" />
        </mxCell>
        <mxCell id="Wi5E8he1UOnMoaCyJchL-16" style="edgeStyle=orthogonalEdgeStyle;rounded=0;orthogonalLoop=1;jettySize=auto;html=1;exitX=1;exitY=0.5;exitDx=0;exitDy=0;entryX=0;entryY=0.5;entryDx=0;entryDy=0;endArrow=none;startFill=0;strokeWidth=0.5;" edge="1" parent="1" source="Wi5E8he1UOnMoaCyJchL-2" target="Wi5E8he1UOnMoaCyJchL-7">
          <mxGeometry relative="1" as="geometry" />
        </mxCell>
        <mxCell id="Wi5E8he1UOnMoaCyJchL-17" style="rounded=0;orthogonalLoop=1;jettySize=auto;html=1;exitX=1;exitY=0.5;exitDx=0;exitDy=0;entryX=0;entryY=0.5;entryDx=0;entryDy=0;endArrow=none;startFill=0;strokeWidth=0.5;" edge="1" parent="1" source="Wi5E8he1UOnMoaCyJchL-2" target="Wi5E8he1UOnMoaCyJchL-8">
          <mxGeometry relative="1" as="geometry" />
        </mxCell>
        <mxCell id="Wi5E8he1UOnMoaCyJchL-18" style="edgeStyle=none;shape=connector;rounded=0;orthogonalLoop=1;jettySize=auto;html=1;exitX=1;exitY=0.5;exitDx=0;exitDy=0;entryX=0;entryY=0.5;entryDx=0;entryDy=0;strokeColor=default;align=center;verticalAlign=middle;fontFamily=Helvetica;fontSize=11;fontColor=default;labelBackgroundColor=default;startFill=0;endArrow=none;strokeWidth=0.5;" edge="1" parent="1" source="Wi5E8he1UOnMoaCyJchL-2" target="Wi5E8he1UOnMoaCyJchL-9">
          <mxGeometry relative="1" as="geometry" />
        </mxCell>
        <mxCell id="Wi5E8he1UOnMoaCyJchL-19" style="edgeStyle=none;shape=connector;rounded=0;orthogonalLoop=1;jettySize=auto;html=1;exitX=1;exitY=0.5;exitDx=0;exitDy=0;entryX=0;entryY=0.5;entryDx=0;entryDy=0;strokeColor=default;align=center;verticalAlign=middle;fontFamily=Helvetica;fontSize=11;fontColor=default;labelBackgroundColor=default;startFill=0;endArrow=none;strokeWidth=0.5;" edge="1" parent="1" source="Wi5E8he1UOnMoaCyJchL-2" target="Wi5E8he1UOnMoaCyJchL-10">
          <mxGeometry relative="1" as="geometry" />
        </mxCell>
        <mxCell id="Wi5E8he1UOnMoaCyJchL-2" value="" style="ellipse;whiteSpace=wrap;html=1;aspect=fixed;fillColor=#008a00;strokeColor=#005700;fontColor=#ffffff;" vertex="1" parent="1">
          <mxGeometry x="310" y="186" width="7" height="7" as="geometry" />
        </mxCell>
        <mxCell id="Wi5E8he1UOnMoaCyJchL-20" style="edgeStyle=none;shape=connector;rounded=0;orthogonalLoop=1;jettySize=auto;html=1;exitX=1;exitY=0.5;exitDx=0;exitDy=0;entryX=0;entryY=0.5;entryDx=0;entryDy=0;strokeColor=default;align=center;verticalAlign=middle;fontFamily=Helvetica;fontSize=11;fontColor=default;labelBackgroundColor=default;startFill=0;endArrow=none;strokeWidth=0.5;" edge="1" parent="1" source="Wi5E8he1UOnMoaCyJchL-3" target="Wi5E8he1UOnMoaCyJchL-5">
          <mxGeometry relative="1" as="geometry" />
        </mxCell>
        <mxCell id="Wi5E8he1UOnMoaCyJchL-21" style="edgeStyle=none;shape=connector;rounded=0;orthogonalLoop=1;jettySize=auto;html=1;exitX=1;exitY=0.5;exitDx=0;exitDy=0;entryX=0;entryY=0.5;entryDx=0;entryDy=0;strokeColor=default;align=center;verticalAlign=middle;fontFamily=Helvetica;fontSize=11;fontColor=default;labelBackgroundColor=default;startFill=0;endArrow=none;strokeWidth=0.5;" edge="1" parent="1" source="Wi5E8he1UOnMoaCyJchL-3" target="Wi5E8he1UOnMoaCyJchL-7">
          <mxGeometry relative="1" as="geometry" />
        </mxCell>
        <mxCell id="Wi5E8he1UOnMoaCyJchL-22" style="edgeStyle=none;shape=connector;rounded=0;orthogonalLoop=1;jettySize=auto;html=1;exitX=1;exitY=0.5;exitDx=0;exitDy=0;entryX=0;entryY=0.5;entryDx=0;entryDy=0;strokeColor=default;align=center;verticalAlign=middle;fontFamily=Helvetica;fontSize=11;fontColor=default;labelBackgroundColor=default;startFill=0;endArrow=none;strokeWidth=0.5;" edge="1" parent="1" source="Wi5E8he1UOnMoaCyJchL-3" target="Wi5E8he1UOnMoaCyJchL-8">
          <mxGeometry relative="1" as="geometry" />
        </mxCell>
        <mxCell id="Wi5E8he1UOnMoaCyJchL-23" style="edgeStyle=none;shape=connector;rounded=0;orthogonalLoop=1;jettySize=auto;html=1;exitX=1;exitY=0.5;exitDx=0;exitDy=0;entryX=0;entryY=0.5;entryDx=0;entryDy=0;strokeColor=default;strokeWidth=0.5;align=center;verticalAlign=middle;fontFamily=Helvetica;fontSize=11;fontColor=default;labelBackgroundColor=default;startFill=0;endArrow=none;" edge="1" parent="1" source="Wi5E8he1UOnMoaCyJchL-3" target="Wi5E8he1UOnMoaCyJchL-9">
          <mxGeometry relative="1" as="geometry" />
        </mxCell>
        <mxCell id="Wi5E8he1UOnMoaCyJchL-24" style="edgeStyle=none;shape=connector;rounded=0;orthogonalLoop=1;jettySize=auto;html=1;exitX=1;exitY=0.5;exitDx=0;exitDy=0;entryX=0;entryY=0.5;entryDx=0;entryDy=0;strokeColor=default;strokeWidth=0.5;align=center;verticalAlign=middle;fontFamily=Helvetica;fontSize=11;fontColor=default;labelBackgroundColor=default;startFill=0;endArrow=none;" edge="1" parent="1" source="Wi5E8he1UOnMoaCyJchL-3" target="Wi5E8he1UOnMoaCyJchL-10">
          <mxGeometry relative="1" as="geometry" />
        </mxCell>
        <mxCell id="Wi5E8he1UOnMoaCyJchL-3" value="" style="ellipse;whiteSpace=wrap;html=1;aspect=fixed;fillColor=#008a00;strokeColor=#005700;fontColor=#ffffff;" vertex="1" parent="1">
          <mxGeometry x="310" y="200" width="7" height="7" as="geometry" />
        </mxCell>
        <mxCell id="Wi5E8he1UOnMoaCyJchL-25" style="edgeStyle=none;shape=connector;rounded=0;orthogonalLoop=1;jettySize=auto;html=1;exitX=1;exitY=0.5;exitDx=0;exitDy=0;entryX=0;entryY=0.5;entryDx=0;entryDy=0;strokeColor=default;strokeWidth=0.5;align=center;verticalAlign=middle;fontFamily=Helvetica;fontSize=11;fontColor=default;labelBackgroundColor=default;startFill=0;endArrow=none;" edge="1" parent="1" source="Wi5E8he1UOnMoaCyJchL-4" target="Wi5E8he1UOnMoaCyJchL-5">
          <mxGeometry relative="1" as="geometry" />
        </mxCell>
        <mxCell id="Wi5E8he1UOnMoaCyJchL-26" style="edgeStyle=none;shape=connector;rounded=0;orthogonalLoop=1;jettySize=auto;html=1;exitX=1;exitY=0.5;exitDx=0;exitDy=0;entryX=0;entryY=0.5;entryDx=0;entryDy=0;strokeColor=default;strokeWidth=0.5;align=center;verticalAlign=middle;fontFamily=Helvetica;fontSize=11;fontColor=default;labelBackgroundColor=default;startFill=0;endArrow=none;" edge="1" parent="1" source="Wi5E8he1UOnMoaCyJchL-4" target="Wi5E8he1UOnMoaCyJchL-7">
          <mxGeometry relative="1" as="geometry" />
        </mxCell>
        <mxCell id="Wi5E8he1UOnMoaCyJchL-27" style="edgeStyle=none;shape=connector;rounded=0;orthogonalLoop=1;jettySize=auto;html=1;exitX=1;exitY=0.5;exitDx=0;exitDy=0;entryX=0;entryY=0.5;entryDx=0;entryDy=0;strokeColor=default;strokeWidth=0.5;align=center;verticalAlign=middle;fontFamily=Helvetica;fontSize=11;fontColor=default;labelBackgroundColor=default;startFill=0;endArrow=none;" edge="1" parent="1" source="Wi5E8he1UOnMoaCyJchL-4" target="Wi5E8he1UOnMoaCyJchL-8">
          <mxGeometry relative="1" as="geometry" />
        </mxCell>
        <mxCell id="Wi5E8he1UOnMoaCyJchL-28" style="edgeStyle=none;shape=connector;rounded=0;orthogonalLoop=1;jettySize=auto;html=1;exitX=1;exitY=0.5;exitDx=0;exitDy=0;entryX=0;entryY=0.5;entryDx=0;entryDy=0;strokeColor=default;strokeWidth=0.5;align=center;verticalAlign=middle;fontFamily=Helvetica;fontSize=11;fontColor=default;labelBackgroundColor=default;startFill=0;endArrow=none;" edge="1" parent="1" source="Wi5E8he1UOnMoaCyJchL-4" target="Wi5E8he1UOnMoaCyJchL-9">
          <mxGeometry relative="1" as="geometry" />
        </mxCell>
        <mxCell id="Wi5E8he1UOnMoaCyJchL-29" style="edgeStyle=none;shape=connector;rounded=0;orthogonalLoop=1;jettySize=auto;html=1;exitX=1;exitY=0.5;exitDx=0;exitDy=0;entryX=0;entryY=0.5;entryDx=0;entryDy=0;strokeColor=default;strokeWidth=0.5;align=center;verticalAlign=middle;fontFamily=Helvetica;fontSize=11;fontColor=default;labelBackgroundColor=default;startFill=0;endArrow=none;" edge="1" parent="1" source="Wi5E8he1UOnMoaCyJchL-4" target="Wi5E8he1UOnMoaCyJchL-10">
          <mxGeometry relative="1" as="geometry" />
        </mxCell>
        <mxCell id="Wi5E8he1UOnMoaCyJchL-4" value="" style="ellipse;whiteSpace=wrap;html=1;aspect=fixed;fillColor=#008a00;strokeColor=#005700;fontColor=#ffffff;" vertex="1" parent="1">
          <mxGeometry x="310" y="214" width="7" height="7" as="geometry" />
        </mxCell>
        <mxCell id="Wi5E8he1UOnMoaCyJchL-30" style="edgeStyle=none;shape=connector;rounded=0;orthogonalLoop=1;jettySize=auto;html=1;exitX=1;exitY=0.5;exitDx=0;exitDy=0;entryX=0;entryY=0.5;entryDx=0;entryDy=0;strokeColor=default;strokeWidth=0.5;align=center;verticalAlign=middle;fontFamily=Helvetica;fontSize=11;fontColor=default;labelBackgroundColor=default;startFill=0;endArrow=none;" edge="1" parent="1" source="Wi5E8he1UOnMoaCyJchL-5" target="Wi5E8he1UOnMoaCyJchL-11">
          <mxGeometry relative="1" as="geometry" />
        </mxCell>
        <mxCell id="Wi5E8he1UOnMoaCyJchL-31" style="edgeStyle=none;shape=connector;rounded=0;orthogonalLoop=1;jettySize=auto;html=1;exitX=1;exitY=0.5;exitDx=0;exitDy=0;entryX=0;entryY=0.5;entryDx=0;entryDy=0;strokeColor=default;strokeWidth=0.5;align=center;verticalAlign=middle;fontFamily=Helvetica;fontSize=11;fontColor=default;labelBackgroundColor=default;startFill=0;endArrow=none;" edge="1" parent="1" source="Wi5E8he1UOnMoaCyJchL-5" target="Wi5E8he1UOnMoaCyJchL-12">
          <mxGeometry relative="1" as="geometry" />
        </mxCell>
        <mxCell id="Wi5E8he1UOnMoaCyJchL-32" style="edgeStyle=none;shape=connector;rounded=0;orthogonalLoop=1;jettySize=auto;html=1;exitX=1;exitY=0.5;exitDx=0;exitDy=0;entryX=0;entryY=0.5;entryDx=0;entryDy=0;strokeColor=default;strokeWidth=0.5;align=center;verticalAlign=middle;fontFamily=Helvetica;fontSize=11;fontColor=default;labelBackgroundColor=default;startFill=0;endArrow=none;" edge="1" parent="1" source="Wi5E8he1UOnMoaCyJchL-5" target="Wi5E8he1UOnMoaCyJchL-13">
          <mxGeometry relative="1" as="geometry" />
        </mxCell>
        <mxCell id="Wi5E8he1UOnMoaCyJchL-33" style="edgeStyle=none;shape=connector;rounded=0;orthogonalLoop=1;jettySize=auto;html=1;exitX=1;exitY=0.5;exitDx=0;exitDy=0;entryX=0;entryY=0.5;entryDx=0;entryDy=0;strokeColor=default;strokeWidth=0.5;align=center;verticalAlign=middle;fontFamily=Helvetica;fontSize=11;fontColor=default;labelBackgroundColor=default;startFill=0;endArrow=none;" edge="1" parent="1" source="Wi5E8he1UOnMoaCyJchL-5" target="Wi5E8he1UOnMoaCyJchL-14">
          <mxGeometry relative="1" as="geometry" />
        </mxCell>
        <mxCell id="Wi5E8he1UOnMoaCyJchL-5" value="" style="ellipse;whiteSpace=wrap;html=1;aspect=fixed;fillColor=#008a00;strokeColor=#005700;fontColor=#ffffff;" vertex="1" parent="1">
          <mxGeometry x="330" y="172" width="7" height="7" as="geometry" />
        </mxCell>
        <mxCell id="Wi5E8he1UOnMoaCyJchL-34" style="edgeStyle=none;shape=connector;rounded=0;orthogonalLoop=1;jettySize=auto;html=1;exitX=1;exitY=0.5;exitDx=0;exitDy=0;entryX=0;entryY=0.5;entryDx=0;entryDy=0;strokeColor=default;strokeWidth=0.5;align=center;verticalAlign=middle;fontFamily=Helvetica;fontSize=11;fontColor=default;labelBackgroundColor=default;startFill=0;endArrow=none;" edge="1" parent="1" source="Wi5E8he1UOnMoaCyJchL-7" target="Wi5E8he1UOnMoaCyJchL-11">
          <mxGeometry relative="1" as="geometry" />
        </mxCell>
        <mxCell id="Wi5E8he1UOnMoaCyJchL-35" style="edgeStyle=none;shape=connector;rounded=0;orthogonalLoop=1;jettySize=auto;html=1;exitX=1;exitY=0.5;exitDx=0;exitDy=0;entryX=0;entryY=0.5;entryDx=0;entryDy=0;strokeColor=default;strokeWidth=0.5;align=center;verticalAlign=middle;fontFamily=Helvetica;fontSize=11;fontColor=default;labelBackgroundColor=default;startFill=0;endArrow=none;" edge="1" parent="1" source="Wi5E8he1UOnMoaCyJchL-7" target="Wi5E8he1UOnMoaCyJchL-12">
          <mxGeometry relative="1" as="geometry" />
        </mxCell>
        <mxCell id="Wi5E8he1UOnMoaCyJchL-37" style="edgeStyle=none;shape=connector;rounded=0;orthogonalLoop=1;jettySize=auto;html=1;exitX=1;exitY=0.5;exitDx=0;exitDy=0;entryX=0;entryY=0.5;entryDx=0;entryDy=0;strokeColor=default;strokeWidth=0.5;align=center;verticalAlign=middle;fontFamily=Helvetica;fontSize=11;fontColor=default;labelBackgroundColor=default;startFill=0;endArrow=none;" edge="1" parent="1" source="Wi5E8he1UOnMoaCyJchL-7" target="Wi5E8he1UOnMoaCyJchL-13">
          <mxGeometry relative="1" as="geometry" />
        </mxCell>
        <mxCell id="Wi5E8he1UOnMoaCyJchL-38" style="edgeStyle=none;shape=connector;rounded=0;orthogonalLoop=1;jettySize=auto;html=1;exitX=1;exitY=0.5;exitDx=0;exitDy=0;entryX=0;entryY=0.5;entryDx=0;entryDy=0;strokeColor=default;strokeWidth=0.5;align=center;verticalAlign=middle;fontFamily=Helvetica;fontSize=11;fontColor=default;labelBackgroundColor=default;startFill=0;endArrow=none;" edge="1" parent="1" source="Wi5E8he1UOnMoaCyJchL-7" target="Wi5E8he1UOnMoaCyJchL-14">
          <mxGeometry relative="1" as="geometry" />
        </mxCell>
        <mxCell id="Wi5E8he1UOnMoaCyJchL-7" value="" style="ellipse;whiteSpace=wrap;html=1;aspect=fixed;fillColor=#008a00;strokeColor=#005700;fontColor=#ffffff;" vertex="1" parent="1">
          <mxGeometry x="330" y="186" width="7" height="7" as="geometry" />
        </mxCell>
        <mxCell id="Wi5E8he1UOnMoaCyJchL-39" style="edgeStyle=none;shape=connector;rounded=0;orthogonalLoop=1;jettySize=auto;html=1;exitX=1;exitY=0.5;exitDx=0;exitDy=0;entryX=0;entryY=0.5;entryDx=0;entryDy=0;strokeColor=default;strokeWidth=0.5;align=center;verticalAlign=middle;fontFamily=Helvetica;fontSize=11;fontColor=default;labelBackgroundColor=default;startFill=0;endArrow=none;" edge="1" parent="1" source="Wi5E8he1UOnMoaCyJchL-8" target="Wi5E8he1UOnMoaCyJchL-11">
          <mxGeometry relative="1" as="geometry" />
        </mxCell>
        <mxCell id="Wi5E8he1UOnMoaCyJchL-40" style="edgeStyle=none;shape=connector;rounded=0;orthogonalLoop=1;jettySize=auto;html=1;exitX=1;exitY=0.5;exitDx=0;exitDy=0;entryX=0;entryY=0.5;entryDx=0;entryDy=0;strokeColor=default;strokeWidth=0.5;align=center;verticalAlign=middle;fontFamily=Helvetica;fontSize=11;fontColor=default;labelBackgroundColor=default;startFill=0;endArrow=none;" edge="1" parent="1" source="Wi5E8he1UOnMoaCyJchL-8" target="Wi5E8he1UOnMoaCyJchL-12">
          <mxGeometry relative="1" as="geometry" />
        </mxCell>
        <mxCell id="Wi5E8he1UOnMoaCyJchL-41" style="edgeStyle=none;shape=connector;rounded=0;orthogonalLoop=1;jettySize=auto;html=1;exitX=1;exitY=0.5;exitDx=0;exitDy=0;entryX=0;entryY=0.5;entryDx=0;entryDy=0;strokeColor=default;strokeWidth=0.5;align=center;verticalAlign=middle;fontFamily=Helvetica;fontSize=11;fontColor=default;labelBackgroundColor=default;startFill=0;endArrow=none;" edge="1" parent="1" source="Wi5E8he1UOnMoaCyJchL-8" target="Wi5E8he1UOnMoaCyJchL-13">
          <mxGeometry relative="1" as="geometry" />
        </mxCell>
        <mxCell id="Wi5E8he1UOnMoaCyJchL-42" style="edgeStyle=none;shape=connector;rounded=0;orthogonalLoop=1;jettySize=auto;html=1;exitX=1;exitY=0.5;exitDx=0;exitDy=0;entryX=0;entryY=0.5;entryDx=0;entryDy=0;strokeColor=default;strokeWidth=0.5;align=center;verticalAlign=middle;fontFamily=Helvetica;fontSize=11;fontColor=default;labelBackgroundColor=default;startFill=0;endArrow=none;" edge="1" parent="1" source="Wi5E8he1UOnMoaCyJchL-8" target="Wi5E8he1UOnMoaCyJchL-14">
          <mxGeometry relative="1" as="geometry" />
        </mxCell>
        <mxCell id="Wi5E8he1UOnMoaCyJchL-8" value="" style="ellipse;whiteSpace=wrap;html=1;aspect=fixed;fillColor=#008a00;strokeColor=#005700;fontColor=#ffffff;" vertex="1" parent="1">
          <mxGeometry x="330" y="200" width="7" height="7" as="geometry" />
        </mxCell>
        <mxCell id="Wi5E8he1UOnMoaCyJchL-43" style="edgeStyle=none;shape=connector;rounded=0;orthogonalLoop=1;jettySize=auto;html=1;exitX=1;exitY=0.5;exitDx=0;exitDy=0;entryX=0;entryY=0.5;entryDx=0;entryDy=0;strokeColor=default;strokeWidth=0.5;align=center;verticalAlign=middle;fontFamily=Helvetica;fontSize=11;fontColor=default;labelBackgroundColor=default;startFill=0;endArrow=none;" edge="1" parent="1" source="Wi5E8he1UOnMoaCyJchL-9" target="Wi5E8he1UOnMoaCyJchL-11">
          <mxGeometry relative="1" as="geometry" />
        </mxCell>
        <mxCell id="Wi5E8he1UOnMoaCyJchL-44" style="edgeStyle=none;shape=connector;rounded=0;orthogonalLoop=1;jettySize=auto;html=1;exitX=1;exitY=0.5;exitDx=0;exitDy=0;entryX=0;entryY=0.5;entryDx=0;entryDy=0;strokeColor=default;strokeWidth=0.5;align=center;verticalAlign=middle;fontFamily=Helvetica;fontSize=11;fontColor=default;labelBackgroundColor=default;startFill=0;endArrow=none;" edge="1" parent="1" source="Wi5E8he1UOnMoaCyJchL-9" target="Wi5E8he1UOnMoaCyJchL-12">
          <mxGeometry relative="1" as="geometry" />
        </mxCell>
        <mxCell id="Wi5E8he1UOnMoaCyJchL-45" style="edgeStyle=none;shape=connector;rounded=0;orthogonalLoop=1;jettySize=auto;html=1;exitX=1;exitY=0.5;exitDx=0;exitDy=0;entryX=0;entryY=0.5;entryDx=0;entryDy=0;strokeColor=default;strokeWidth=0.5;align=center;verticalAlign=middle;fontFamily=Helvetica;fontSize=11;fontColor=default;labelBackgroundColor=default;startFill=0;endArrow=none;" edge="1" parent="1" source="Wi5E8he1UOnMoaCyJchL-9" target="Wi5E8he1UOnMoaCyJchL-13">
          <mxGeometry relative="1" as="geometry" />
        </mxCell>
        <mxCell id="Wi5E8he1UOnMoaCyJchL-46" style="edgeStyle=none;shape=connector;rounded=0;orthogonalLoop=1;jettySize=auto;html=1;exitX=1;exitY=0.5;exitDx=0;exitDy=0;entryX=0;entryY=0.5;entryDx=0;entryDy=0;strokeColor=default;strokeWidth=0.5;align=center;verticalAlign=middle;fontFamily=Helvetica;fontSize=11;fontColor=default;labelBackgroundColor=default;startFill=0;endArrow=none;" edge="1" parent="1" source="Wi5E8he1UOnMoaCyJchL-9" target="Wi5E8he1UOnMoaCyJchL-14">
          <mxGeometry relative="1" as="geometry" />
        </mxCell>
        <mxCell id="Wi5E8he1UOnMoaCyJchL-9" value="" style="ellipse;whiteSpace=wrap;html=1;aspect=fixed;fillColor=#008a00;strokeColor=#005700;fontColor=#ffffff;" vertex="1" parent="1">
          <mxGeometry x="330" y="214" width="7" height="7" as="geometry" />
        </mxCell>
        <mxCell id="Wi5E8he1UOnMoaCyJchL-47" style="edgeStyle=none;shape=connector;rounded=0;orthogonalLoop=1;jettySize=auto;html=1;exitX=1;exitY=0.5;exitDx=0;exitDy=0;entryX=0;entryY=0.5;entryDx=0;entryDy=0;strokeColor=default;strokeWidth=0.5;align=center;verticalAlign=middle;fontFamily=Helvetica;fontSize=11;fontColor=default;labelBackgroundColor=default;startFill=0;endArrow=none;" edge="1" parent="1" source="Wi5E8he1UOnMoaCyJchL-10" target="Wi5E8he1UOnMoaCyJchL-11">
          <mxGeometry relative="1" as="geometry" />
        </mxCell>
        <mxCell id="Wi5E8he1UOnMoaCyJchL-48" style="edgeStyle=none;shape=connector;rounded=0;orthogonalLoop=1;jettySize=auto;html=1;exitX=1;exitY=0.5;exitDx=0;exitDy=0;entryX=0;entryY=0.5;entryDx=0;entryDy=0;strokeColor=default;strokeWidth=0.5;align=center;verticalAlign=middle;fontFamily=Helvetica;fontSize=11;fontColor=default;labelBackgroundColor=default;startFill=0;endArrow=none;" edge="1" parent="1" source="Wi5E8he1UOnMoaCyJchL-10" target="Wi5E8he1UOnMoaCyJchL-12">
          <mxGeometry relative="1" as="geometry" />
        </mxCell>
        <mxCell id="Wi5E8he1UOnMoaCyJchL-49" style="edgeStyle=none;shape=connector;rounded=0;orthogonalLoop=1;jettySize=auto;html=1;exitX=1;exitY=0.5;exitDx=0;exitDy=0;entryX=0;entryY=0.5;entryDx=0;entryDy=0;strokeColor=default;strokeWidth=0.5;align=center;verticalAlign=middle;fontFamily=Helvetica;fontSize=11;fontColor=default;labelBackgroundColor=default;startFill=0;endArrow=none;" edge="1" parent="1" source="Wi5E8he1UOnMoaCyJchL-10" target="Wi5E8he1UOnMoaCyJchL-13">
          <mxGeometry relative="1" as="geometry" />
        </mxCell>
        <mxCell id="Wi5E8he1UOnMoaCyJchL-50" style="edgeStyle=none;shape=connector;rounded=0;orthogonalLoop=1;jettySize=auto;html=1;exitX=1;exitY=0.5;exitDx=0;exitDy=0;entryX=0;entryY=0.5;entryDx=0;entryDy=0;strokeColor=default;strokeWidth=0.5;align=center;verticalAlign=middle;fontFamily=Helvetica;fontSize=11;fontColor=default;labelBackgroundColor=default;startFill=0;endArrow=none;" edge="1" parent="1" source="Wi5E8he1UOnMoaCyJchL-10" target="Wi5E8he1UOnMoaCyJchL-14">
          <mxGeometry relative="1" as="geometry" />
        </mxCell>
        <mxCell id="Wi5E8he1UOnMoaCyJchL-10" value="" style="ellipse;whiteSpace=wrap;html=1;aspect=fixed;fillColor=#008a00;strokeColor=#005700;fontColor=#ffffff;" vertex="1" parent="1">
          <mxGeometry x="330" y="230" width="7" height="7" as="geometry" />
        </mxCell>
        <mxCell id="Wi5E8he1UOnMoaCyJchL-11" value="" style="ellipse;whiteSpace=wrap;html=1;aspect=fixed;fillColor=#008a00;strokeColor=#005700;fontColor=#ffffff;" vertex="1" parent="1">
          <mxGeometry x="353" y="179" width="7" height="7" as="geometry" />
        </mxCell>
        <mxCell id="Wi5E8he1UOnMoaCyJchL-12" value="" style="ellipse;whiteSpace=wrap;html=1;aspect=fixed;fillColor=#008a00;strokeColor=#005700;fontColor=#ffffff;" vertex="1" parent="1">
          <mxGeometry x="353" y="193" width="7" height="7" as="geometry" />
        </mxCell>
        <mxCell id="Wi5E8he1UOnMoaCyJchL-13" value="" style="ellipse;whiteSpace=wrap;html=1;aspect=fixed;fillColor=#008a00;strokeColor=#005700;fontColor=#ffffff;" vertex="1" parent="1">
          <mxGeometry x="353" y="207" width="7" height="7" as="geometry" />
        </mxCell>
        <mxCell id="Wi5E8he1UOnMoaCyJchL-14" value="" style="ellipse;whiteSpace=wrap;html=1;aspect=fixed;fillColor=#008a00;strokeColor=#005700;fontColor=#ffffff;" vertex="1" parent="1">
          <mxGeometry x="353" y="223" width="7" height="7" as="geometry" />
        </mxCell>
        <mxCell id="Wi5E8he1UOnMoaCyJchL-51" style="rounded=0;orthogonalLoop=1;jettySize=auto;html=1;exitX=1;exitY=0.5;exitDx=0;exitDy=0;entryX=0;entryY=0.5;entryDx=0;entryDy=0;strokeWidth=0.5;endArrow=none;endFill=1;startFill=0;fillColor=#a20025;strokeColor=#6F0000;" edge="1" parent="1" source="Wi5E8he1UOnMoaCyJchL-56" target="Wi5E8he1UOnMoaCyJchL-73">
          <mxGeometry relative="1" as="geometry" />
        </mxCell>
        <mxCell id="Wi5E8he1UOnMoaCyJchL-52" style="edgeStyle=orthogonalEdgeStyle;rounded=0;orthogonalLoop=1;jettySize=auto;html=1;exitX=1;exitY=0.5;exitDx=0;exitDy=0;entryX=0;entryY=0.5;entryDx=0;entryDy=0;endArrow=none;startFill=0;strokeWidth=0.5;fillColor=#a20025;strokeColor=#6F0000;" edge="1" parent="1" source="Wi5E8he1UOnMoaCyJchL-56" target="Wi5E8he1UOnMoaCyJchL-78">
          <mxGeometry relative="1" as="geometry" />
        </mxCell>
        <mxCell id="Wi5E8he1UOnMoaCyJchL-53" style="rounded=0;orthogonalLoop=1;jettySize=auto;html=1;exitX=1;exitY=0.5;exitDx=0;exitDy=0;entryX=0;entryY=0.5;entryDx=0;entryDy=0;endArrow=none;startFill=0;strokeWidth=0.5;fillColor=#a20025;strokeColor=#6F0000;" edge="1" parent="1" source="Wi5E8he1UOnMoaCyJchL-56" target="Wi5E8he1UOnMoaCyJchL-83">
          <mxGeometry relative="1" as="geometry" />
        </mxCell>
        <mxCell id="Wi5E8he1UOnMoaCyJchL-54" style="edgeStyle=none;shape=connector;rounded=0;orthogonalLoop=1;jettySize=auto;html=1;exitX=1;exitY=0.5;exitDx=0;exitDy=0;entryX=0;entryY=0.5;entryDx=0;entryDy=0;strokeColor=#6F0000;align=center;verticalAlign=middle;fontFamily=Helvetica;fontSize=11;fontColor=default;labelBackgroundColor=default;startFill=0;endArrow=none;strokeWidth=0.5;fillColor=#a20025;" edge="1" parent="1" source="Wi5E8he1UOnMoaCyJchL-56" target="Wi5E8he1UOnMoaCyJchL-88">
          <mxGeometry relative="1" as="geometry" />
        </mxCell>
        <mxCell id="Wi5E8he1UOnMoaCyJchL-55" style="edgeStyle=none;shape=connector;rounded=0;orthogonalLoop=1;jettySize=auto;html=1;exitX=1;exitY=0.5;exitDx=0;exitDy=0;entryX=0;entryY=0.5;entryDx=0;entryDy=0;strokeColor=#6F0000;align=center;verticalAlign=middle;fontFamily=Helvetica;fontSize=11;fontColor=default;labelBackgroundColor=default;startFill=0;endArrow=none;strokeWidth=0.5;fillColor=#a20025;" edge="1" parent="1" source="Wi5E8he1UOnMoaCyJchL-56" target="Wi5E8he1UOnMoaCyJchL-93">
          <mxGeometry relative="1" as="geometry" />
        </mxCell>
        <mxCell id="Wi5E8he1UOnMoaCyJchL-56" value="" style="ellipse;whiteSpace=wrap;html=1;aspect=fixed;fillColor=#a20025;strokeColor=#6F0000;fontColor=#ffffff;" vertex="1" parent="1">
          <mxGeometry x="395" y="281.5" width="7" height="7" as="geometry" />
        </mxCell>
        <mxCell id="Wi5E8he1UOnMoaCyJchL-57" style="edgeStyle=none;shape=connector;rounded=0;orthogonalLoop=1;jettySize=auto;html=1;exitX=1;exitY=0.5;exitDx=0;exitDy=0;entryX=0;entryY=0.5;entryDx=0;entryDy=0;strokeColor=#6F0000;align=center;verticalAlign=middle;fontFamily=Helvetica;fontSize=11;fontColor=default;labelBackgroundColor=default;startFill=0;endArrow=none;strokeWidth=0.5;fillColor=#a20025;" edge="1" parent="1" source="Wi5E8he1UOnMoaCyJchL-62" target="Wi5E8he1UOnMoaCyJchL-73">
          <mxGeometry relative="1" as="geometry" />
        </mxCell>
        <mxCell id="Wi5E8he1UOnMoaCyJchL-58" style="edgeStyle=none;shape=connector;rounded=0;orthogonalLoop=1;jettySize=auto;html=1;exitX=1;exitY=0.5;exitDx=0;exitDy=0;entryX=0;entryY=0.5;entryDx=0;entryDy=0;strokeColor=#6F0000;align=center;verticalAlign=middle;fontFamily=Helvetica;fontSize=11;fontColor=default;labelBackgroundColor=default;startFill=0;endArrow=none;strokeWidth=0.5;fillColor=#a20025;" edge="1" parent="1" source="Wi5E8he1UOnMoaCyJchL-62" target="Wi5E8he1UOnMoaCyJchL-78">
          <mxGeometry relative="1" as="geometry" />
        </mxCell>
        <mxCell id="Wi5E8he1UOnMoaCyJchL-59" style="edgeStyle=none;shape=connector;rounded=0;orthogonalLoop=1;jettySize=auto;html=1;exitX=1;exitY=0.5;exitDx=0;exitDy=0;entryX=0;entryY=0.5;entryDx=0;entryDy=0;strokeColor=#6F0000;align=center;verticalAlign=middle;fontFamily=Helvetica;fontSize=11;fontColor=default;labelBackgroundColor=default;startFill=0;endArrow=none;strokeWidth=0.5;fillColor=#a20025;" edge="1" parent="1" source="Wi5E8he1UOnMoaCyJchL-62" target="Wi5E8he1UOnMoaCyJchL-83">
          <mxGeometry relative="1" as="geometry" />
        </mxCell>
        <mxCell id="Wi5E8he1UOnMoaCyJchL-60" style="edgeStyle=none;shape=connector;rounded=0;orthogonalLoop=1;jettySize=auto;html=1;exitX=1;exitY=0.5;exitDx=0;exitDy=0;entryX=0;entryY=0.5;entryDx=0;entryDy=0;strokeColor=#6F0000;strokeWidth=0.5;align=center;verticalAlign=middle;fontFamily=Helvetica;fontSize=11;fontColor=default;labelBackgroundColor=default;startFill=0;endArrow=none;fillColor=#a20025;" edge="1" parent="1" source="Wi5E8he1UOnMoaCyJchL-62" target="Wi5E8he1UOnMoaCyJchL-88">
          <mxGeometry relative="1" as="geometry" />
        </mxCell>
        <mxCell id="Wi5E8he1UOnMoaCyJchL-61" style="edgeStyle=none;shape=connector;rounded=0;orthogonalLoop=1;jettySize=auto;html=1;exitX=1;exitY=0.5;exitDx=0;exitDy=0;entryX=0;entryY=0.5;entryDx=0;entryDy=0;strokeColor=#6F0000;strokeWidth=0.5;align=center;verticalAlign=middle;fontFamily=Helvetica;fontSize=11;fontColor=default;labelBackgroundColor=default;startFill=0;endArrow=none;fillColor=#a20025;" edge="1" parent="1" source="Wi5E8he1UOnMoaCyJchL-62" target="Wi5E8he1UOnMoaCyJchL-93">
          <mxGeometry relative="1" as="geometry" />
        </mxCell>
        <mxCell id="Wi5E8he1UOnMoaCyJchL-62" value="" style="ellipse;whiteSpace=wrap;html=1;aspect=fixed;fillColor=#a20025;strokeColor=#6F0000;fontColor=#ffffff;" vertex="1" parent="1">
          <mxGeometry x="395" y="295.5" width="7" height="7" as="geometry" />
        </mxCell>
        <mxCell id="Wi5E8he1UOnMoaCyJchL-63" style="edgeStyle=none;shape=connector;rounded=0;orthogonalLoop=1;jettySize=auto;html=1;exitX=1;exitY=0.5;exitDx=0;exitDy=0;entryX=0;entryY=0.5;entryDx=0;entryDy=0;strokeColor=#6F0000;strokeWidth=0.5;align=center;verticalAlign=middle;fontFamily=Helvetica;fontSize=11;fontColor=default;labelBackgroundColor=default;startFill=0;endArrow=none;fillColor=#a20025;" edge="1" parent="1" source="Wi5E8he1UOnMoaCyJchL-68" target="Wi5E8he1UOnMoaCyJchL-73">
          <mxGeometry relative="1" as="geometry" />
        </mxCell>
        <mxCell id="Wi5E8he1UOnMoaCyJchL-64" style="edgeStyle=none;shape=connector;rounded=0;orthogonalLoop=1;jettySize=auto;html=1;exitX=1;exitY=0.5;exitDx=0;exitDy=0;entryX=0;entryY=0.5;entryDx=0;entryDy=0;strokeColor=#6F0000;strokeWidth=0.5;align=center;verticalAlign=middle;fontFamily=Helvetica;fontSize=11;fontColor=default;labelBackgroundColor=default;startFill=0;endArrow=none;fillColor=#a20025;" edge="1" parent="1" source="Wi5E8he1UOnMoaCyJchL-68" target="Wi5E8he1UOnMoaCyJchL-78">
          <mxGeometry relative="1" as="geometry" />
        </mxCell>
        <mxCell id="Wi5E8he1UOnMoaCyJchL-65" style="edgeStyle=none;shape=connector;rounded=0;orthogonalLoop=1;jettySize=auto;html=1;exitX=1;exitY=0.5;exitDx=0;exitDy=0;entryX=0;entryY=0.5;entryDx=0;entryDy=0;strokeColor=#6F0000;strokeWidth=0.5;align=center;verticalAlign=middle;fontFamily=Helvetica;fontSize=11;fontColor=default;labelBackgroundColor=default;startFill=0;endArrow=none;fillColor=#a20025;" edge="1" parent="1" source="Wi5E8he1UOnMoaCyJchL-68" target="Wi5E8he1UOnMoaCyJchL-83">
          <mxGeometry relative="1" as="geometry" />
        </mxCell>
        <mxCell id="Wi5E8he1UOnMoaCyJchL-66" style="edgeStyle=none;shape=connector;rounded=0;orthogonalLoop=1;jettySize=auto;html=1;exitX=1;exitY=0.5;exitDx=0;exitDy=0;entryX=0;entryY=0.5;entryDx=0;entryDy=0;strokeColor=#6F0000;strokeWidth=0.5;align=center;verticalAlign=middle;fontFamily=Helvetica;fontSize=11;fontColor=default;labelBackgroundColor=default;startFill=0;endArrow=none;fillColor=#a20025;" edge="1" parent="1" source="Wi5E8he1UOnMoaCyJchL-68" target="Wi5E8he1UOnMoaCyJchL-88">
          <mxGeometry relative="1" as="geometry" />
        </mxCell>
        <mxCell id="Wi5E8he1UOnMoaCyJchL-67" style="edgeStyle=none;shape=connector;rounded=0;orthogonalLoop=1;jettySize=auto;html=1;exitX=1;exitY=0.5;exitDx=0;exitDy=0;entryX=0;entryY=0.5;entryDx=0;entryDy=0;strokeColor=#6F0000;strokeWidth=0.5;align=center;verticalAlign=middle;fontFamily=Helvetica;fontSize=11;fontColor=default;labelBackgroundColor=default;startFill=0;endArrow=none;fillColor=#a20025;" edge="1" parent="1" source="Wi5E8he1UOnMoaCyJchL-68" target="Wi5E8he1UOnMoaCyJchL-93">
          <mxGeometry relative="1" as="geometry" />
        </mxCell>
        <mxCell id="Wi5E8he1UOnMoaCyJchL-68" value="" style="ellipse;whiteSpace=wrap;html=1;aspect=fixed;fillColor=#a20025;strokeColor=#6F0000;fontColor=#ffffff;" vertex="1" parent="1">
          <mxGeometry x="395" y="309.5" width="7" height="7" as="geometry" />
        </mxCell>
        <mxCell id="Wi5E8he1UOnMoaCyJchL-69" style="edgeStyle=none;shape=connector;rounded=0;orthogonalLoop=1;jettySize=auto;html=1;exitX=1;exitY=0.5;exitDx=0;exitDy=0;entryX=0;entryY=0.5;entryDx=0;entryDy=0;strokeColor=#6F0000;strokeWidth=0.5;align=center;verticalAlign=middle;fontFamily=Helvetica;fontSize=11;fontColor=default;labelBackgroundColor=default;startFill=0;endArrow=none;fillColor=#a20025;" edge="1" parent="1" source="Wi5E8he1UOnMoaCyJchL-73" target="Wi5E8he1UOnMoaCyJchL-94">
          <mxGeometry relative="1" as="geometry" />
        </mxCell>
        <mxCell id="Wi5E8he1UOnMoaCyJchL-70" style="edgeStyle=none;shape=connector;rounded=0;orthogonalLoop=1;jettySize=auto;html=1;exitX=1;exitY=0.5;exitDx=0;exitDy=0;entryX=0;entryY=0.5;entryDx=0;entryDy=0;strokeColor=#6F0000;strokeWidth=0.5;align=center;verticalAlign=middle;fontFamily=Helvetica;fontSize=11;fontColor=default;labelBackgroundColor=default;startFill=0;endArrow=none;fillColor=#a20025;" edge="1" parent="1" source="Wi5E8he1UOnMoaCyJchL-73" target="Wi5E8he1UOnMoaCyJchL-95">
          <mxGeometry relative="1" as="geometry" />
        </mxCell>
        <mxCell id="Wi5E8he1UOnMoaCyJchL-71" style="edgeStyle=none;shape=connector;rounded=0;orthogonalLoop=1;jettySize=auto;html=1;exitX=1;exitY=0.5;exitDx=0;exitDy=0;entryX=0;entryY=0.5;entryDx=0;entryDy=0;strokeColor=#6F0000;strokeWidth=0.5;align=center;verticalAlign=middle;fontFamily=Helvetica;fontSize=11;fontColor=default;labelBackgroundColor=default;startFill=0;endArrow=none;fillColor=#a20025;" edge="1" parent="1" source="Wi5E8he1UOnMoaCyJchL-73" target="Wi5E8he1UOnMoaCyJchL-96">
          <mxGeometry relative="1" as="geometry" />
        </mxCell>
        <mxCell id="Wi5E8he1UOnMoaCyJchL-72" style="edgeStyle=none;shape=connector;rounded=0;orthogonalLoop=1;jettySize=auto;html=1;exitX=1;exitY=0.5;exitDx=0;exitDy=0;entryX=0;entryY=0.5;entryDx=0;entryDy=0;strokeColor=#6F0000;strokeWidth=0.5;align=center;verticalAlign=middle;fontFamily=Helvetica;fontSize=11;fontColor=default;labelBackgroundColor=default;startFill=0;endArrow=none;fillColor=#a20025;" edge="1" parent="1" source="Wi5E8he1UOnMoaCyJchL-73" target="Wi5E8he1UOnMoaCyJchL-97">
          <mxGeometry relative="1" as="geometry" />
        </mxCell>
        <mxCell id="Wi5E8he1UOnMoaCyJchL-73" value="" style="ellipse;whiteSpace=wrap;html=1;aspect=fixed;fillColor=#a20025;strokeColor=#6F0000;fontColor=#ffffff;" vertex="1" parent="1">
          <mxGeometry x="415" y="267.5" width="7" height="7" as="geometry" />
        </mxCell>
        <mxCell id="Wi5E8he1UOnMoaCyJchL-74" style="edgeStyle=none;shape=connector;rounded=0;orthogonalLoop=1;jettySize=auto;html=1;exitX=1;exitY=0.5;exitDx=0;exitDy=0;entryX=0;entryY=0.5;entryDx=0;entryDy=0;strokeColor=#6F0000;strokeWidth=0.5;align=center;verticalAlign=middle;fontFamily=Helvetica;fontSize=11;fontColor=default;labelBackgroundColor=default;startFill=0;endArrow=none;fillColor=#a20025;" edge="1" parent="1" source="Wi5E8he1UOnMoaCyJchL-78" target="Wi5E8he1UOnMoaCyJchL-94">
          <mxGeometry relative="1" as="geometry" />
        </mxCell>
        <mxCell id="Wi5E8he1UOnMoaCyJchL-75" style="edgeStyle=none;shape=connector;rounded=0;orthogonalLoop=1;jettySize=auto;html=1;exitX=1;exitY=0.5;exitDx=0;exitDy=0;entryX=0;entryY=0.5;entryDx=0;entryDy=0;strokeColor=#6F0000;strokeWidth=0.5;align=center;verticalAlign=middle;fontFamily=Helvetica;fontSize=11;fontColor=default;labelBackgroundColor=default;startFill=0;endArrow=none;fillColor=#a20025;" edge="1" parent="1" source="Wi5E8he1UOnMoaCyJchL-78" target="Wi5E8he1UOnMoaCyJchL-95">
          <mxGeometry relative="1" as="geometry" />
        </mxCell>
        <mxCell id="Wi5E8he1UOnMoaCyJchL-76" style="edgeStyle=none;shape=connector;rounded=0;orthogonalLoop=1;jettySize=auto;html=1;exitX=1;exitY=0.5;exitDx=0;exitDy=0;entryX=0;entryY=0.5;entryDx=0;entryDy=0;strokeColor=#6F0000;strokeWidth=0.5;align=center;verticalAlign=middle;fontFamily=Helvetica;fontSize=11;fontColor=default;labelBackgroundColor=default;startFill=0;endArrow=none;fillColor=#a20025;" edge="1" parent="1" source="Wi5E8he1UOnMoaCyJchL-78" target="Wi5E8he1UOnMoaCyJchL-96">
          <mxGeometry relative="1" as="geometry" />
        </mxCell>
        <mxCell id="Wi5E8he1UOnMoaCyJchL-77" style="edgeStyle=none;shape=connector;rounded=0;orthogonalLoop=1;jettySize=auto;html=1;exitX=1;exitY=0.5;exitDx=0;exitDy=0;entryX=0;entryY=0.5;entryDx=0;entryDy=0;strokeColor=#6F0000;strokeWidth=0.5;align=center;verticalAlign=middle;fontFamily=Helvetica;fontSize=11;fontColor=default;labelBackgroundColor=default;startFill=0;endArrow=none;fillColor=#a20025;" edge="1" parent="1" source="Wi5E8he1UOnMoaCyJchL-78" target="Wi5E8he1UOnMoaCyJchL-97">
          <mxGeometry relative="1" as="geometry" />
        </mxCell>
        <mxCell id="Wi5E8he1UOnMoaCyJchL-78" value="" style="ellipse;whiteSpace=wrap;html=1;aspect=fixed;fillColor=#a20025;strokeColor=#6F0000;fontColor=#ffffff;" vertex="1" parent="1">
          <mxGeometry x="415" y="281.5" width="7" height="7" as="geometry" />
        </mxCell>
        <mxCell id="Wi5E8he1UOnMoaCyJchL-79" style="edgeStyle=none;shape=connector;rounded=0;orthogonalLoop=1;jettySize=auto;html=1;exitX=1;exitY=0.5;exitDx=0;exitDy=0;entryX=0;entryY=0.5;entryDx=0;entryDy=0;strokeColor=#6F0000;strokeWidth=0.5;align=center;verticalAlign=middle;fontFamily=Helvetica;fontSize=11;fontColor=default;labelBackgroundColor=default;startFill=0;endArrow=none;fillColor=#a20025;" edge="1" parent="1" source="Wi5E8he1UOnMoaCyJchL-83" target="Wi5E8he1UOnMoaCyJchL-94">
          <mxGeometry relative="1" as="geometry" />
        </mxCell>
        <mxCell id="Wi5E8he1UOnMoaCyJchL-80" style="edgeStyle=none;shape=connector;rounded=0;orthogonalLoop=1;jettySize=auto;html=1;exitX=1;exitY=0.5;exitDx=0;exitDy=0;entryX=0;entryY=0.5;entryDx=0;entryDy=0;strokeColor=#6F0000;strokeWidth=0.5;align=center;verticalAlign=middle;fontFamily=Helvetica;fontSize=11;fontColor=default;labelBackgroundColor=default;startFill=0;endArrow=none;fillColor=#a20025;" edge="1" parent="1" source="Wi5E8he1UOnMoaCyJchL-83" target="Wi5E8he1UOnMoaCyJchL-95">
          <mxGeometry relative="1" as="geometry" />
        </mxCell>
        <mxCell id="Wi5E8he1UOnMoaCyJchL-81" style="edgeStyle=none;shape=connector;rounded=0;orthogonalLoop=1;jettySize=auto;html=1;exitX=1;exitY=0.5;exitDx=0;exitDy=0;entryX=0;entryY=0.5;entryDx=0;entryDy=0;strokeColor=#6F0000;strokeWidth=0.5;align=center;verticalAlign=middle;fontFamily=Helvetica;fontSize=11;fontColor=default;labelBackgroundColor=default;startFill=0;endArrow=none;fillColor=#a20025;" edge="1" parent="1" source="Wi5E8he1UOnMoaCyJchL-83" target="Wi5E8he1UOnMoaCyJchL-96">
          <mxGeometry relative="1" as="geometry" />
        </mxCell>
        <mxCell id="Wi5E8he1UOnMoaCyJchL-82" style="edgeStyle=none;shape=connector;rounded=0;orthogonalLoop=1;jettySize=auto;html=1;exitX=1;exitY=0.5;exitDx=0;exitDy=0;entryX=0;entryY=0.5;entryDx=0;entryDy=0;strokeColor=#6F0000;strokeWidth=0.5;align=center;verticalAlign=middle;fontFamily=Helvetica;fontSize=11;fontColor=default;labelBackgroundColor=default;startFill=0;endArrow=none;fillColor=#a20025;" edge="1" parent="1" source="Wi5E8he1UOnMoaCyJchL-83" target="Wi5E8he1UOnMoaCyJchL-97">
          <mxGeometry relative="1" as="geometry" />
        </mxCell>
        <mxCell id="Wi5E8he1UOnMoaCyJchL-83" value="" style="ellipse;whiteSpace=wrap;html=1;aspect=fixed;fillColor=#a20025;strokeColor=#6F0000;fontColor=#ffffff;" vertex="1" parent="1">
          <mxGeometry x="415" y="295.5" width="7" height="7" as="geometry" />
        </mxCell>
        <mxCell id="Wi5E8he1UOnMoaCyJchL-84" style="edgeStyle=none;shape=connector;rounded=0;orthogonalLoop=1;jettySize=auto;html=1;exitX=1;exitY=0.5;exitDx=0;exitDy=0;entryX=0;entryY=0.5;entryDx=0;entryDy=0;strokeColor=#6F0000;strokeWidth=0.5;align=center;verticalAlign=middle;fontFamily=Helvetica;fontSize=11;fontColor=default;labelBackgroundColor=default;startFill=0;endArrow=none;fillColor=#a20025;" edge="1" parent="1" source="Wi5E8he1UOnMoaCyJchL-88" target="Wi5E8he1UOnMoaCyJchL-94">
          <mxGeometry relative="1" as="geometry" />
        </mxCell>
        <mxCell id="Wi5E8he1UOnMoaCyJchL-85" style="edgeStyle=none;shape=connector;rounded=0;orthogonalLoop=1;jettySize=auto;html=1;exitX=1;exitY=0.5;exitDx=0;exitDy=0;entryX=0;entryY=0.5;entryDx=0;entryDy=0;strokeColor=#6F0000;strokeWidth=0.5;align=center;verticalAlign=middle;fontFamily=Helvetica;fontSize=11;fontColor=default;labelBackgroundColor=default;startFill=0;endArrow=none;fillColor=#a20025;" edge="1" parent="1" source="Wi5E8he1UOnMoaCyJchL-88" target="Wi5E8he1UOnMoaCyJchL-95">
          <mxGeometry relative="1" as="geometry" />
        </mxCell>
        <mxCell id="Wi5E8he1UOnMoaCyJchL-86" style="edgeStyle=none;shape=connector;rounded=0;orthogonalLoop=1;jettySize=auto;html=1;exitX=1;exitY=0.5;exitDx=0;exitDy=0;entryX=0;entryY=0.5;entryDx=0;entryDy=0;strokeColor=#6F0000;strokeWidth=0.5;align=center;verticalAlign=middle;fontFamily=Helvetica;fontSize=11;fontColor=default;labelBackgroundColor=default;startFill=0;endArrow=none;fillColor=#a20025;" edge="1" parent="1" source="Wi5E8he1UOnMoaCyJchL-88" target="Wi5E8he1UOnMoaCyJchL-96">
          <mxGeometry relative="1" as="geometry" />
        </mxCell>
        <mxCell id="Wi5E8he1UOnMoaCyJchL-87" style="edgeStyle=none;shape=connector;rounded=0;orthogonalLoop=1;jettySize=auto;html=1;exitX=1;exitY=0.5;exitDx=0;exitDy=0;entryX=0;entryY=0.5;entryDx=0;entryDy=0;strokeColor=#6F0000;strokeWidth=0.5;align=center;verticalAlign=middle;fontFamily=Helvetica;fontSize=11;fontColor=default;labelBackgroundColor=default;startFill=0;endArrow=none;fillColor=#a20025;" edge="1" parent="1" source="Wi5E8he1UOnMoaCyJchL-88" target="Wi5E8he1UOnMoaCyJchL-97">
          <mxGeometry relative="1" as="geometry" />
        </mxCell>
        <mxCell id="Wi5E8he1UOnMoaCyJchL-88" value="" style="ellipse;whiteSpace=wrap;html=1;aspect=fixed;fillColor=#a20025;strokeColor=#6F0000;fontColor=#ffffff;" vertex="1" parent="1">
          <mxGeometry x="415" y="309.5" width="7" height="7" as="geometry" />
        </mxCell>
        <mxCell id="Wi5E8he1UOnMoaCyJchL-89" style="edgeStyle=none;shape=connector;rounded=0;orthogonalLoop=1;jettySize=auto;html=1;exitX=1;exitY=0.5;exitDx=0;exitDy=0;entryX=0;entryY=0.5;entryDx=0;entryDy=0;strokeColor=#6F0000;strokeWidth=0.5;align=center;verticalAlign=middle;fontFamily=Helvetica;fontSize=11;fontColor=default;labelBackgroundColor=default;startFill=0;endArrow=none;fillColor=#a20025;" edge="1" parent="1" source="Wi5E8he1UOnMoaCyJchL-93" target="Wi5E8he1UOnMoaCyJchL-94">
          <mxGeometry relative="1" as="geometry" />
        </mxCell>
        <mxCell id="Wi5E8he1UOnMoaCyJchL-90" style="edgeStyle=none;shape=connector;rounded=0;orthogonalLoop=1;jettySize=auto;html=1;exitX=1;exitY=0.5;exitDx=0;exitDy=0;entryX=0;entryY=0.5;entryDx=0;entryDy=0;strokeColor=#6F0000;strokeWidth=0.5;align=center;verticalAlign=middle;fontFamily=Helvetica;fontSize=11;fontColor=default;labelBackgroundColor=default;startFill=0;endArrow=none;fillColor=#a20025;" edge="1" parent="1" source="Wi5E8he1UOnMoaCyJchL-93" target="Wi5E8he1UOnMoaCyJchL-95">
          <mxGeometry relative="1" as="geometry" />
        </mxCell>
        <mxCell id="Wi5E8he1UOnMoaCyJchL-91" style="edgeStyle=none;shape=connector;rounded=0;orthogonalLoop=1;jettySize=auto;html=1;exitX=1;exitY=0.5;exitDx=0;exitDy=0;entryX=0;entryY=0.5;entryDx=0;entryDy=0;strokeColor=#6F0000;strokeWidth=0.5;align=center;verticalAlign=middle;fontFamily=Helvetica;fontSize=11;fontColor=default;labelBackgroundColor=default;startFill=0;endArrow=none;fillColor=#a20025;" edge="1" parent="1" source="Wi5E8he1UOnMoaCyJchL-93" target="Wi5E8he1UOnMoaCyJchL-96">
          <mxGeometry relative="1" as="geometry" />
        </mxCell>
        <mxCell id="Wi5E8he1UOnMoaCyJchL-92" style="edgeStyle=none;shape=connector;rounded=0;orthogonalLoop=1;jettySize=auto;html=1;exitX=1;exitY=0.5;exitDx=0;exitDy=0;entryX=0;entryY=0.5;entryDx=0;entryDy=0;strokeColor=#6F0000;strokeWidth=0.5;align=center;verticalAlign=middle;fontFamily=Helvetica;fontSize=11;fontColor=default;labelBackgroundColor=default;startFill=0;endArrow=none;fillColor=#a20025;" edge="1" parent="1" source="Wi5E8he1UOnMoaCyJchL-93" target="Wi5E8he1UOnMoaCyJchL-97">
          <mxGeometry relative="1" as="geometry" />
        </mxCell>
        <mxCell id="Wi5E8he1UOnMoaCyJchL-93" value="" style="ellipse;whiteSpace=wrap;html=1;aspect=fixed;fillColor=#a20025;strokeColor=#6F0000;fontColor=#ffffff;" vertex="1" parent="1">
          <mxGeometry x="415" y="325.5" width="7" height="7" as="geometry" />
        </mxCell>
        <mxCell id="Wi5E8he1UOnMoaCyJchL-94" value="" style="ellipse;whiteSpace=wrap;html=1;aspect=fixed;fillColor=#a20025;strokeColor=#6F0000;fontColor=#ffffff;" vertex="1" parent="1">
          <mxGeometry x="438" y="274.5" width="7" height="7" as="geometry" />
        </mxCell>
        <mxCell id="Wi5E8he1UOnMoaCyJchL-95" value="" style="ellipse;whiteSpace=wrap;html=1;aspect=fixed;fillColor=#a20025;strokeColor=#6F0000;fontColor=#ffffff;" vertex="1" parent="1">
          <mxGeometry x="438" y="288.5" width="7" height="7" as="geometry" />
        </mxCell>
        <mxCell id="Wi5E8he1UOnMoaCyJchL-96" value="" style="ellipse;whiteSpace=wrap;html=1;aspect=fixed;fillColor=#a20025;strokeColor=#6F0000;fontColor=#ffffff;" vertex="1" parent="1">
          <mxGeometry x="438" y="302.5" width="7" height="7" as="geometry" />
        </mxCell>
        <mxCell id="Wi5E8he1UOnMoaCyJchL-97" value="" style="ellipse;whiteSpace=wrap;html=1;aspect=fixed;fillColor=#a20025;strokeColor=#6F0000;fontColor=#ffffff;" vertex="1" parent="1">
          <mxGeometry x="438" y="318.5" width="7" height="7" as="geometry" />
        </mxCell>
        <mxCell id="Wi5E8he1UOnMoaCyJchL-98" value="Q" style="text;html=1;align=center;verticalAlign=middle;whiteSpace=wrap;rounded=0;" vertex="1" parent="1">
          <mxGeometry x="390" y="237" width="60" height="30" as="geometry" />
        </mxCell>
        <mxCell id="Wi5E8he1UOnMoaCyJchL-99" value="" style="endArrow=classic;html=1;rounded=0;strokeColor=default;strokeWidth=1;align=center;verticalAlign=middle;fontFamily=Helvetica;fontSize=11;fontColor=default;labelBackgroundColor=default;edgeStyle=none;exitX=0.008;exitY=0.337;exitDx=0;exitDy=0;exitPerimeter=0;entryX=0.005;entryY=0.548;entryDx=0;entryDy=0;entryPerimeter=0;" edge="1" parent="1" source="mvJgyyiXs0eFSsutSy1s-2" target="2D5P-O0thgNvpgd-1Gi0-3">
          <mxGeometry width="50" height="50" relative="1" as="geometry">
            <mxPoint x="380" y="270" as="sourcePoint" />
            <mxPoint x="430" y="220" as="targetPoint" />
          </mxGeometry>
        </mxCell>
        <mxCell id="Wi5E8he1UOnMoaCyJchL-100" value="" style="endArrow=classic;html=1;rounded=0;strokeColor=default;strokeWidth=1;align=center;verticalAlign=middle;fontFamily=Helvetica;fontSize=11;fontColor=default;labelBackgroundColor=default;edgeStyle=orthogonalEdgeStyle;entryX=-0.006;entryY=0.546;entryDx=0;entryDy=0;entryPerimeter=0;" edge="1" parent="1" target="2D5P-O0thgNvpgd-1Gi0-5">
          <mxGeometry width="50" height="50" relative="1" as="geometry">
            <mxPoint x="270" y="211" as="sourcePoint" />
            <mxPoint x="430" y="220" as="targetPoint" />
            <Array as="points">
              <mxPoint x="270" y="304" />
            </Array>
          </mxGeometry>
        </mxCell>
        <mxCell id="Wi5E8he1UOnMoaCyJchL-104" style="edgeStyle=orthogonalEdgeStyle;shape=connector;rounded=0;orthogonalLoop=1;jettySize=auto;html=1;exitX=1;exitY=0.25;exitDx=0;exitDy=0;entryX=1;entryY=0.323;entryDx=0;entryDy=0;entryPerimeter=0;strokeColor=default;strokeWidth=1;align=center;verticalAlign=middle;fontFamily=Helvetica;fontSize=11;fontColor=default;labelBackgroundColor=default;endArrow=classic;" edge="1" parent="1" source="2D5P-O0thgNvpgd-1Gi0-7" target="mvJgyyiXs0eFSsutSy1s-2">
          <mxGeometry relative="1" as="geometry" />
        </mxCell>
        <mxCell id="Wi5E8he1UOnMoaCyJchL-107" value="各动作的状态-动作价值函数" style="text;html=1;align=center;verticalAlign=middle;whiteSpace=wrap;rounded=0;fontFamily=Helvetica;fontSize=11;fontColor=default;labelBackgroundColor=none;" vertex="1" parent="1">
          <mxGeometry x="390" y="172" width="100" height="30" as="geometry" />
        </mxCell>
        <mxCell id="Wi5E8he1UOnMoaCyJchL-108" value="各动作的方差状态-动作价值函数" style="text;html=1;align=center;verticalAlign=middle;whiteSpace=wrap;rounded=0;fontFamily=Helvetica;fontSize=11;fontColor=default;labelBackgroundColor=none;" vertex="1" parent="1">
          <mxGeometry x="460" y="281.5" width="91" height="77" as="geometry" />
        </mxCell>
      </root>
    </mxGraphModel>
  </diagram>
</mxfile>
